<?xml version="1.0" encoding="utf-8"?>
<!-- Generator: Adobe Illustrator 23.1.0, SVG Export Plug-In . SVG Version: 6.00 Build 0)  -->
<svg version="1.1" xmlns="http://www.w3.org/2000/svg" xmlns:xlink="http://www.w3.org/1999/xlink" x="0px" y="0px"
	 viewBox="0 0 64 64" style="enable-background:new 0 0 64 64;" xml:space="preserve" fill="white">
	<polygon points="62.01,0 62.01,2 60.01,2 60.01,4 58.01,4 58.01,6 56.01,6 56.01,8 54.01,8 54.01,10 52.01,10 52.01,14 48,14 
		48,16 46,16 46,18 42,18 42,20 40,20 40,22 38,22 38,24 36,24 36,26 32,26 32,24 30,24 30,22 28,22 28,20 26,20 26,18 22,18 22,14 
		18,14 18,10 16,10 16,8 14,8 14,6 12,6 12,4 8,4 8,2 6,2 6,0 0,0 0,2 2,2 2,6 4,6 4,8 6,8 6,10 8,10 8,12 12,12 12,14 14,14 14,16 
		16,16 16,18 20,18 20,20 22,20 22,22 24,22 24,24 26,24 26,26 28,26 28,28 30,28 30,30 28,30 28,32 26,32 26,34 24,34 24,36 22,36 
		22,38 18,38 18,42 16,42 16,44 14,44 14,46 12,46 12,48 10,48 10,50 8,50 8,52 6,52 6,54 4,54 4,56 2,56 2,58 0,58 0,64 4,64 4,62 
		6,62 6,60 8,60 8,58 10,58 10,56 12,56 12,54 14,54 14,50 18,50 18,48 20,48 20,44 22,44 22,42 26,42 26,38 28,38 28,36 30,36 
		30,34 32,34 32,32 36,32 36,34 38,34 38,36 40,36 40,38 42,38 42,40 44,40 44,44 46,44 46,46 48,46 48,48 50,48 50,52 52.01,52 
		52.01,54 54.01,54 54.01,56 58.01,56 58.01,62 60.01,62 60.01,64 64.01,64 64.01,56 62.01,56 62.01,54 60.01,54 60.01,52 58.01,52 
		58.01,48 56.01,48 56.01,46 54.01,46 54.01,44 52.01,44 52.01,40 48,40 48,38 46,38 46,36 44,36 44,34 42,34 42,32 40,32 40,30 
		36,30 36,28 40,28 40,26 42,26 42,24 46,24 46,22 48,22 48,20 52.01,20 52.01,18 54.01,18 54.01,16 56.01,16 56.01,14 58.01,14 
		58.01,12 60.01,12 60.01,10 62.01,10 62.01,8 64.01,8 64.01,0 	"/>
</svg>
