<?xml version="1.0" encoding="utf-8"?>
<svg version="1.1" xmlns="http://www.w3.org/2000/svg" xmlns:xlink="http://www.w3.org/1999/xlink" x="0px" y="0px"
	 viewBox="0 0 64 64" style="enable-background:new 0 0 64 64;" xml:space="preserve" fill="white">
	<polygon points="18,4 16,4 16,24 18,24 18,12 20,12 20,10 18,10 	"/>
	<rect x="12" y="8" width="2" height="16"/>
	<rect x="12" y="4" width="2" height="2"/>
	<polygon points="4,14 10,14 10,12 4,12 4,6 2,6 2,24 4,24 	"/>
	<polygon points="60,32 60,30 58,30 58,28 52,28 52,26 50,26 50,24 46,24 46,22 44,22 44,18 42,18 42,16 40,16 40,12 38,12 38,8 
		36,8 36,0 32,0 32,10 30,10 30,18 28,18 28,22 26,22 26,6 20,6 20,10 22,10 22,8 24,8 24,24 22,24 22,26 20,26 20,28 12,28 12,30 
		6,30 6,28 2,28 2,30 0,30 0,32 10,32 10,34 16,34 16,36 18,36 18,38 20,38 20,40 22,40 22,42 24,42 24,46 26,46 26,50 28,50 28,58 
		26,58 26,62 28,62 28,60 30,60 30,54 32,54 32,48 34,48 34,46 36,46 36,44 38,44 38,42 40,42 40,40 44,40 44,38 48,38 48,36 54,36 
		54,34 62,34 62,36 64,36 64,32 	"/>
	<polygon points="58,52 58,50 54,50 54,48 56,48 56,42 54,42 54,44 52,44 52,48 48,48 48,50 44,50 44,52 42,52 42,54 46,54 46,60 
		44,60 44,64 46,64 46,62 50,62 50,58 52,58 52,56 56,56 56,54 60,54 60,56 62,56 62,52 	"/>
	<rect x="4" y="4" width="6" height="2"/>
</svg>
