<?xml version="1.0" encoding="utf-8"?>
<!-- Generator: Adobe Illustrator 23.1.0, SVG Export Plug-In . SVG Version: 6.00 Build 0)  -->
<svg version="1.1" xmlns="http://www.w3.org/2000/svg" xmlns:xlink="http://www.w3.org/1999/xlink" x="0px" y="0px"
	 viewBox="0 0 64 64" style="enable-background:new 0 0 64 64;" xml:space="preserve" fill="rgb(223, 223, 223)">
	<polygon  points="34,2 34,4 32,4 32,6 30,6 30,8 28,8 28,10 26,10 26,12 22,12 22,14 4,14 4,52 22,52 22,54 26,54 26,56 30,56 
		30,58 32,58 32,60 34,60 34,62 40,62 40,2 	"/>
	<polygon  points="62,12 60,12 60,8 58,8 58,4 56,4 56,2 52,2 52,4 54,4 54,6 56,6 56,10 58,10 58,14 60,14 60,22 62,22 62,38 60,38 
		60,48 62,48 62,40 64,40 64,20 62,20 	"/>
	<polygon points="58,52 56,52 56,54 54,54 54,56 50,56 50,58 48,58 48,60 46,60 46,62 44,62 44,64 48,64 48,62 52,62 52,60 56,60 
		56,58 58,58 58,54 60,54 60,48 58,48 	"/>
	<polygon points="52,48 50,48 50,50 48,50 48,52 46,52 46,54 44,54 44,58 46,58 46,56 48,56 48,54 50,54 50,52 52,52 52,50 54,50 
		54,46 52,46 	"/>
	<rect x="50" y="0" width="2" height="2"/>
	<polygon points="46,12 48,12 48,14 50,14 50,16 52,16 52,20 54,20 54,46 56,46 56,18 54,18 54,14 52,14 52,12 50,12 50,10 48,10 
		48,8 46,8 46,6 44,6 44,10 46,10 	"/>
	<polygon points="46,46 46,42 48,42 48,36 50,36 50,24 48,24 48,18 46,18 46,16 42,16 42,18 44,18 44,20 46,20 46,26 48,26 48,34 
		46,34 46,40 44,40 44,44 42,44 42,46 	"/>
</svg>
