<?xml version="1.0" encoding="utf-8"?>
<!-- Generator: Adobe Illustrator 23.1.0, SVG Export Plug-In . SVG Version: 6.00 Build 0)  -->
<svg version="1.1" xmlns="http://www.w3.org/2000/svg" xmlns:xlink="http://www.w3.org/1999/xlink" x="0px" y="0px"
	 viewBox="0 0 64 64" style="enable-background:new 0 0 64 64;" xml:space="preserve" fill="rgb(223, 223, 223)">
	<path d="M62,10h-2V8h-2V6h-2V4h-2V2h-6V0H21.99v2h-4v2h-2v2h-4v2h-4v2h-2v2h-2v4h-2v2h-2v28h2v4h2v4h2v2h4v2h4v2h4v2h4v2H44v-2h6
		v-2h4v-2h2v-2h4v-2h2v-2h2V16h-2V10z M15.99,58v-2h-2v-2h-2v-2h-2v-2h-2v-2h-2v-2h-2V18h2v-2h2v-2h2v-2h2v4h2v2h2v2h2v22H32v4h2v2
		h6v2h4v2h2v4h2v2h-8v2H21.99v-2H15.99z M60,50h-4v2h-4v-4h-4v-4h-2V10h-6v2h-2v2h-4v2h-2v2h-2v2h-6.01v-2h-2v-2h-2v-2h-2v-2h-2V8h2
		V6h4V4H48v2h4v2h2v2h2v4h2v2h2V50z"/>
</svg>
